{
    "asset" : {
        "generator" : "Khronos glTF Blender I/O v1.4.40",
        "version" : "2.0"
    },
    "scene" : 0,
    "scenes" : [
        {
            "name" : "Scene",
            "nodes" : [
                0
            ]
        }
    ],
    "nodes" : [
        {
            "mesh" : 0,
            "name" : "brain-low-001"
        }
    ],
    "meshes" : [
        {
            "name" : "Cube.004",
            "primitives" : [
                {
                    "attributes" : {
                        "POSITION" : 0,
                        "NORMAL" : 1,
                        "TEXCOORD_0" : 2
                    },
                    "indices" : 3
                }
            ]
        }
    ],
    "accessors" : [
        {
            "bufferView" : 0,
            "componentType" : 5126,
            "count" : 10545,
            "max" : [
                1.254604458808899,
                1.2608261108398438,
                1.5814660787582397
            ],
            "min" : [
                -1.2546063661575317,
                -1.2234938144683838,
                -1.7371717691421509
            ],
            "type" : "VEC3"
        },
        {
            "bufferView" : 1,
            "componentType" : 5126,
            "count" : 10545,
            "type" : "VEC3"
        },
        {
            "bufferView" : 2,
            "componentType" : 5126,
            "count" : 10545,
            "type" : "VEC2"
        },
        {
            "bufferView" : 3,
            "componentType" : 5123,
            "count" : 61440,
            "type" : "SCALAR"
        }
    ],
    "bufferViews" : [
        {
            "buffer" : 0,
            "byteLength" : 126540,
            "byteOffset" : 0
        },
        {
            "buffer" : 0,
            "byteLength" : 126540,
            "byteOffset" : 126540
        },
        {
            "buffer" : 0,
            "byteLength" : 84360,
            "byteOffset" : 253080
        },
        {
            "buffer" : 0,
            "byteLength" : 122880,
            "byteOffset" : 337440
        }
    ],
    "buffers" : [
        {
            "byteLength" : 460320,
            "uri" : "data:application/octet-stream;base64,"
        }
    ]
}
